<svg xmlns="http://www.w3.org/2000/svg" width="162.328" height="20.767" viewBox="0 0 162.328 20.767">
  <g id="Сгруппировать_258" data-name="Сгруппировать 258" transform="translate(-238.059 -13.888)">
    <path id="Контур_99" data-name="Контур 99" d="M108.024,2.771l-6.669,19.695H87.71l4.358-13h-.255l-9.7,13H66.568l-.458-13h-.26l-4.41,13h-13.7L54.411,2.771H75.856l.771,11.4h.359l8.054-11.4Z" transform="translate(200.812 11.654)" fill="#111"/>
    <path id="Контур_100" data-name="Контур 100" d="M97.866,22.466H83.961L75.7,12.673h-.255l-3.337,9.793H58.466L65.135,2.771h13.8L87.3,12.533h.2l3.337-9.762h13.7Z" transform="translate(245.918 11.654)" fill="#111"/>
    <path id="Контур_101" data-name="Контур 101" d="M82.592,12.659c-.974,2.025,1.182,3.686,4.566,3.686,2.619,0,4.155-.594,5.591-1.968h14.52c-2.567,5.456-9.184,9.059-22.574,9.059-10.569,0-19.752-4.108-17.394-10.917,2.056-5.935,9.751-9.85,21.809-9.85,11.334,0,20.111,3.634,18.773,9.064H93.624c-.156-1.27-1.848-2-4.514-1.973-3.441,0-5.643,1.072-6.518,2.9" transform="translate(281.512 11.22)" fill="#111"/>
    <path id="Контур_102" data-name="Контур 102" d="M49.457,20.137q-4.553-.031-3.551-2.879l4.024-11.37q1.015-2.835,5.6-2.869L54.95,4.638a1.526,1.526,0,0,0-1.614.932L49.072,17.586c-.208.6.115.916.963.927Z" transform="translate(192.333 12.696)" fill="#111"/>
    <path id="Контур_103" data-name="Контур 103" d="M75.6,18.6c.869-.016,1.406-.323,1.614-.927L81.479,5.661q.32-.914-.968-.937l.583-1.614q4.561.031,3.551,2.869L80.62,17.349q-1,2.843-5.6,2.879Z" transform="translate(315.559 13.079)" fill="#111"/>
  </g>
</svg>
