<svg xmlns="http://www.w3.org/2000/svg" width="199.23" height="48.553" viewBox="0 0 199.23 48.553">
  <g id="Сгруппировать_257" data-name="Сгруппировать 257" transform="translate(0 0.002)">
    <path id="Контур_84" data-name="Контур 84" d="M4.519,13.316c0,2.728,0,4.972.141,6.164.089.828.255,1.453,1.109,1.567a12.245,12.245,0,0,0,1.281.109c.172,0,.229.089.229.172,0,.146-.146.229-.458.229-1.562,0-3.353-.083-3.493-.083s-1.931.083-2.785.083c-.312,0-.453-.057-.453-.229,0-.083.052-.172.224-.172a4.358,4.358,0,0,0,.854-.109c.567-.115.708-.739.823-1.567.141-1.192.141-3.436.141-6.164v-5c0-4.43,0-5.227-.052-6.138C2.02,1.212,1.734.728,1.109.587A3.57,3.57,0,0,0,.229.473C.115.473,0,.415,0,.3,0,.129.141.077.453.077,1.4.077,3.181.16,3.327.16S5.258.077,6.112.077c.312,0,.453.052.453.224,0,.115-.115.172-.229.172a4.1,4.1,0,0,0-.708.083c-.771.141-.994.625-1.052,1.619-.057.911-.057,1.708-.057,6.138Z" transform="translate(0 0.322)" fill="#111"/>
    <path id="Контур_85" data-name="Контур 85" d="M6.015,18.013c.057,2.332.344,3.072,1.109,3.3a6.354,6.354,0,0,0,1.421.172c.141,0,.229.057.229.172,0,.167-.172.224-.515.224-1.619,0-2.754-.083-3.009-.083s-1.453.083-2.728.083c-.286,0-.458-.026-.458-.224,0-.115.089-.172.229-.172a4.144,4.144,0,0,0,1.166-.172c.708-.2.854-1.02.854-3.608L4.339,1.416C4.339.312,4.422,0,4.651,0s.708.625.994.906c.427.484,4.66,5.06,9.038,9.746,2.811,3.014,5.909,6.482,6.82,7.419L21.191,3.634c-.031-1.848-.229-2.473-1.109-2.7a7.573,7.573,0,0,0-1.4-.146c-.2,0-.224-.083-.224-.2,0-.172.224-.2.567-.2,1.281,0,2.64.083,2.952.083S23.237.4,24.4.4c.312,0,.51.026.51.2,0,.115-.115.2-.312.2a2.394,2.394,0,0,0-.682.089c-.937.2-1.052.823-1.052,2.53l-.057,16.649c0,1.874-.057,2.02-.255,2.02-.229,0-.573-.318-2.077-1.822-.312-.281-4.4-4.462-7.414-7.7C9.769,9.007,6.557,5.425,5.646,4.4Z" transform="translate(8.682 -0.002)" fill="#111"/>
    <path id="Контур_86" data-name="Контур 86" d="M7.526,21.512c-.4-.2-.427-.312-.427-1.078,0-1.421.115-2.561.141-3.014.031-.312.089-.453.229-.453.172,0,.2.083.2.312a4.844,4.844,0,0,0,.089,1.052c.427,2.1,2.3,2.895,4.2,2.895a3.791,3.791,0,0,0,4.066-3.78c0-1.958-.823-3.092-3.269-5.112l-1.276-1.052c-3.014-2.473-3.7-4.233-3.7-6.164C7.781,2.077,10.056,0,13.664,0a10.971,10.971,0,0,1,2.645.286A4.516,4.516,0,0,0,17.3.427c.224,0,.281.057.281.2s-.115,1.083-.115,3.014c0,.453-.057.651-.2.651-.172,0-.2-.141-.224-.37a5.3,5.3,0,0,0-.37-1.421c-.172-.312-.942-1.5-3.556-1.5a3.232,3.232,0,0,0-3.493,3.3c0,1.619.739,2.645,3.467,4.774l.8.625c3.353,2.645,4.149,4.41,4.149,6.68a5.893,5.893,0,0,1-2.416,4.717,7.477,7.477,0,0,1-4.3,1.192,8.635,8.635,0,0,1-3.806-.765" transform="translate(29.86 -0.002)" fill="#111"/>
    <path id="Контур_87" data-name="Контур 87" d="M12.375,8.317c0-4.436,0-5.227-.057-6.138C12.26,1.211,12.037.758,11.094.56a5.223,5.223,0,0,0-.963-.083C10.017.477,9.9.42,9.9.305c0-.172.141-.229.458-.229,1.276,0,2.983.083,3.207.083.625,0,2.275-.083,3.582-.083C20.7.076,21.98,1.268,22.433,1.7a4.942,4.942,0,0,1,1.421,3.384c0,4.035-2.952,6.763-6.987,6.763a3.813,3.813,0,0,1-.6-.031c-.141,0-.312-.057-.312-.2,0-.229.172-.255.765-.255a4.722,4.722,0,0,0,4.92-4.633,6.027,6.027,0,0,0-1.593-4.373A4.929,4.929,0,0,0,16.155.93a3.616,3.616,0,0,0-1.223.167c-.167.057-.224.26-.224.541V13.32c0,2.728,0,4.972.141,6.164.083.823.255,1.447,1.109,1.562a12.179,12.179,0,0,0,1.281.115c.167,0,.224.083.224.172,0,.141-.141.224-.453.224-1.562,0-3.353-.083-3.5-.083-.083,0-1.874.083-2.723.083-.318,0-.458-.052-.458-.224,0-.089.057-.172.229-.172a4.317,4.317,0,0,0,.849-.115c.573-.115.713-.739.828-1.562.141-1.192.141-3.436.141-6.164Z" transform="translate(41.649 0.318)" fill="#111"/>
    <path id="Контур_88" data-name="Контур 88" d="M17.6,13.316c0,2.728,0,4.972.141,6.164.089.828.26,1.453,1.109,1.567a12.245,12.245,0,0,0,1.281.109c.167,0,.229.089.229.172,0,.146-.146.229-.458.229-1.562,0-3.353-.083-3.493-.083s-1.931.083-2.785.083c-.312,0-.453-.057-.453-.229,0-.083.057-.172.224-.172a4.358,4.358,0,0,0,.854-.109c.567-.115.708-.739.823-1.567.146-1.192.146-3.436.146-6.164v-5c0-4.43,0-5.227-.057-6.138C15.1,1.212,14.812.728,14.187.587a3.57,3.57,0,0,0-.88-.115c-.115,0-.229-.057-.229-.172,0-.172.146-.224.458-.224.937,0,2.728.083,2.869.083S18.336.077,19.19.077c.312,0,.453.052.453.224,0,.115-.115.172-.229.172a4.1,4.1,0,0,0-.708.083c-.765.141-.994.625-1.052,1.619-.057.911-.057,1.708-.057,6.138Z" transform="translate(55.008 0.322)" fill="#111"/>
    <path id="Контур_89" data-name="Контур 89" d="M17.636,8.317c0-4.43,0-5.227-.057-6.138C17.527,1.216,17.3.758,16.36.56a5.321,5.321,0,0,0-.968-.083c-.115,0-.229-.057-.229-.172,0-.172.146-.229.458-.229,1.276,0,3.066.089,3.212.089.312,0,2.468-.089,3.353-.089a8.748,8.748,0,0,1,5.2,1.249,4.977,4.977,0,0,1,1.963,3.868c0,2.1-.88,4.207-3.436,6.565,2.327,2.983,4.264,5.508,5.909,7.273a5.882,5.882,0,0,0,3.467,2.046,6.944,6.944,0,0,0,1.109.083c.141,0,.255.089.255.172,0,.172-.172.229-.682.229h-2.02a5.809,5.809,0,0,1-3.04-.541c-1.218-.656-2.213-2.046-3.832-4.175-1.2-1.567-2.53-3.467-3.1-4.207a.464.464,0,0,0-.37-.172l-3.5-.057c-.141,0-.2.083-.2.229v.682c0,2.728,0,4.972.141,6.164.089.823.255,1.453,1.109,1.562a12.422,12.422,0,0,0,1.281.115c.167,0,.224.089.224.172,0,.141-.141.229-.453.229-1.562,0-3.353-.089-3.493-.089-.031,0-1.822.089-2.671.089-.312,0-.458-.057-.458-.229,0-.083.057-.172.229-.172a4.369,4.369,0,0,0,.854-.115c.567-.109.708-.739.823-1.562.141-1.192.141-3.436.141-6.164Zm2.275,2.473a.369.369,0,0,0,.2.338,7.729,7.729,0,0,0,2.983.458,3.67,3.67,0,0,0,2.135-.541c.994-.682,1.734-2.218,1.734-4.373,0-3.556-1.879-5.685-4.92-5.685a8.326,8.326,0,0,0-1.9.172.336.336,0,0,0-.229.338Z" transform="translate(63.778 0.318)" fill="#111"/>
    <path id="Контур_90" data-name="Контур 90" d="M29.2,1.109C29.542.172,29.657,0,29.823,0s.286.141.63,1.02c.422,1.083,4.883,12.818,6.617,17.139,1.026,2.525,1.848,2.983,2.447,3.15a3.552,3.552,0,0,0,1.135.172c.172,0,.286.031.286.172,0,.172-.26.229-.573.229-.422,0-2.5,0-4.456-.057-.541-.031-.854-.031-.854-.2,0-.109.083-.167.2-.2.172-.057.338-.312.172-.765l-2.645-6.992a.249.249,0,0,0-.255-.172H26.413c-.141,0-.224.089-.281.229l-1.708,5.029a6.038,6.038,0,0,0-.4,1.905c0,.567.6.823,1.078.823h.286c.2,0,.281.057.281.172,0,.172-.167.229-.422.229-.682,0-1.905-.089-2.218-.089s-1.874.089-3.212.089c-.37,0-.541-.057-.541-.229,0-.115.115-.172.255-.172a7.816,7.816,0,0,0,.828-.057c1.307-.167,1.874-1.249,2.384-2.671Zm2.957,11.365c.141,0,.141-.083.115-.2L29.568,4.6c-.141-.427-.281-.427-.427,0l-2.5,7.674c-.057.141,0,.2.083.2Z" transform="translate(81.099 -0.002)" fill="#111"/>
    <path id="Контур_91" data-name="Контур 91" d="M33.506,13.64c0,2.728,0,4.972.141,6.164.089.828.255,1.453,1.109,1.567a12.132,12.132,0,0,0,1.281.109c.167,0,.224.089.224.172,0,.146-.141.229-.453.229-1.562,0-3.353-.083-3.493-.083s-1.931.083-2.785.083c-.312,0-.458-.057-.458-.229,0-.083.057-.172.229-.172a4.359,4.359,0,0,0,.854-.109c.567-.115.708-.739.823-1.567.146-1.192.146-3.436.146-6.164V1.619l-4.207.057c-1.765.031-2.447.229-2.9.911a4.99,4.99,0,0,0-.484.88c-.083.229-.172.286-.286.286-.083,0-.141-.089-.141-.26,0-.281.567-2.728.625-2.952C23.786.37,23.9,0,24.015,0a5.276,5.276,0,0,0,1.249.344c.823.083,1.905.141,2.244.141H38.165a11.629,11.629,0,0,0,2.02-.141c.427-.057.682-.146.791-.146.146,0,.146.172.146.344,0,.854-.089,2.811-.089,3.124,0,.255-.083.37-.2.37-.141,0-.2-.083-.224-.484l-.031-.312c-.083-.849-.765-1.5-3.493-1.562l-3.582-.057Z" transform="translate(97.179 -0.002)" fill="#111"/>
    <path id="Контур_92" data-name="Контур 92" d="M31.726,13.316c0,2.728,0,4.972.141,6.164.089.828.255,1.453,1.109,1.567a12.131,12.131,0,0,0,1.281.109c.167,0,.224.089.224.172,0,.146-.141.229-.453.229-1.562,0-3.353-.083-3.493-.083s-1.937.083-2.785.083c-.312,0-.458-.057-.458-.229,0-.083.057-.172.229-.172a4.358,4.358,0,0,0,.854-.109c.567-.115.708-.739.823-1.567.141-1.192.141-3.436.141-6.164v-5c0-4.43,0-5.227-.057-6.138-.052-.963-.338-1.447-.963-1.588a3.57,3.57,0,0,0-.88-.115c-.115,0-.229-.057-.229-.172,0-.172.141-.224.453-.224.937,0,2.728.083,2.874.083S32.465.077,33.319.077c.312,0,.453.052.453.224,0,.115-.115.172-.229.172a4.1,4.1,0,0,0-.708.083c-.771.141-.994.625-1.052,1.619-.057.911-.057,1.708-.057,6.138Z" transform="translate(114.437 0.322)" fill="#111"/>
    <path id="Контур_93" data-name="Контур 93" d="M40.269,0c6.393,0,11.167,4.035,11.167,10.657,0,6.367-4.488,11.62-11.334,11.62-7.788,0-11.027-6.05-11.027-11.167A11,11,0,0,1,40.269,0m.6,21.2c2.556,0,7.84-1.479,7.84-9.746,0-6.82-4.144-10.485-8.637-10.485-4.743,0-8.3,3.124-8.3,9.35,0,6.617,3.983,10.881,9.1,10.881" transform="translate(122.298 -0.002)" fill="#111"/>
    <path id="Контур_94" data-name="Контур 94" d="M37.83,18.013c.057,2.332.338,3.072,1.109,3.3a6.354,6.354,0,0,0,1.421.172c.141,0,.224.057.224.172,0,.167-.167.224-.51.224-1.619,0-2.754-.083-3.009-.083s-1.453.083-2.733.083c-.281,0-.453-.026-.453-.224,0-.115.089-.172.229-.172a4.168,4.168,0,0,0,1.166-.172c.708-.2.849-1.02.849-3.608l.031-16.285c0-1.1.083-1.416.312-1.416s.708.625.994.906c.427.484,4.66,5.06,9.038,9.746,2.811,3.014,5.909,6.482,6.82,7.419L53.006,3.634c-.031-1.848-.229-2.473-1.109-2.7A7.573,7.573,0,0,0,50.5.791c-.2,0-.224-.083-.224-.2,0-.172.224-.2.567-.2,1.276,0,2.64.083,2.952.083S55.052.4,56.219.4c.307,0,.51.026.51.2,0,.115-.115.2-.312.2a2.394,2.394,0,0,0-.682.089c-.937.2-1.052.823-1.052,2.53l-.057,16.649c0,1.874-.057,2.02-.255,2.02-.229,0-.573-.318-2.077-1.822-.312-.281-4.4-4.462-7.414-7.7-3.3-3.551-6.508-7.132-7.419-8.158Z" transform="translate(142.501 -0.002)" fill="#111"/>
    <path id="Контур_95" data-name="Контур 95" d="M15.163,24.257a10.893,10.893,0,0,1-3.436-8.413,11.328,11.328,0,0,1,3.186-7.757c1.7-1.7,4.285-3.04,8.663-3.04A24.471,24.471,0,0,1,27.7,5.39a25,25,0,0,0,2.895.427c.312.026.37.141.37.312,0,.224-.089.567-.146,1.588-.052.942-.052,2.5-.083,2.931s-.083.594-.25.594c-.2,0-.234-.2-.234-.594a3.933,3.933,0,0,0-1.192-2.9,9.445,9.445,0,0,0-5.68-1.619c-3.785,0-5.545,1.109-6.539,2.072-2.072,1.989-2.551,4.519-2.551,7.419a10.257,10.257,0,0,0,10.251,10.4c2.135,0,3.811-.255,4.951-1.416a5.361,5.361,0,0,0,1.046-2.39c.057-.312.115-.427.281-.427.146,0,.208.2.208.427a29.385,29.385,0,0,1-.63,3.639c-.172.536-.229.594-.739.823a16.524,16.524,0,0,1-5.118.656c-4.259,0-7.132-1.052-9.376-3.072" transform="translate(49.326 21.222)" fill="#111"/>
    <path id="Контур_96" data-name="Контур 96" d="M18.442,13.363c0-4.436,0-5.227-.057-6.138-.057-.968-.281-1.421-1.223-1.619a5.216,5.216,0,0,0-.963-.089c-.115,0-.229-.052-.229-.167,0-.172.141-.229.453-.229,1.281,0,3.014.083,3.269.083s1.963-.083,2.811-.083c.318,0,.458.057.458.229,0,.115-.115.167-.229.167a4.214,4.214,0,0,0-.708.089c-.771.115-.994.625-1.052,1.619-.057.911-.057,1.7-.057,6.138v3.978c0,4.092.906,5.852,2.129,7.018a5.563,5.563,0,0,0,4.29,1.562A5.974,5.974,0,0,0,31.8,23.88c1.307-1.624,1.65-4.04,1.65-6.966V13.363c0-4.436,0-5.227-.057-6.138-.057-.968-.286-1.421-1.223-1.619a5.258,5.258,0,0,0-.963-.089c-.115,0-.229-.052-.229-.167,0-.172.141-.229.453-.229,1.281,0,2.843.083,3.014.083.2,0,1.536-.083,2.384-.083.312,0,.458.057.458.229,0,.115-.115.167-.229.167a4.214,4.214,0,0,0-.708.089c-.771.172-1,.625-1.052,1.619-.057.911-.057,1.7-.057,6.138V16.4c0,3.066-.344,6.476-2.619,8.5A8.32,8.32,0,0,1,26.767,27a8.72,8.72,0,0,1-5.852-2.02c-1.4-1.333-2.473-3.322-2.473-7.471Z" transform="translate(67.168 21.542)" fill="#111"/>
    <path id="Контур_97" data-name="Контур 97" d="M25.573,18.42c0,4.175.115,6,.625,6.508.453.453,1.192.656,3.41.656,1.5,0,2.754-.031,3.436-.854a3.956,3.956,0,0,0,.739-1.708c.031-.224.089-.37.26-.37.141,0,.167.115.167.427a17.938,17.938,0,0,1-.427,2.843c-.2.651-.281.765-1.786.765-2.046,0-3.525-.057-4.722-.083-1.192-.057-2.072-.083-2.895-.083-.115,0-.6.026-1.166.026-.567.026-1.192.057-1.619.057-.312,0-.453-.057-.453-.229,0-.083.052-.167.224-.167a4.369,4.369,0,0,0,.854-.115c.567-.115.708-.739.823-1.562.141-1.2.141-3.441.141-6.169v-5c0-4.436,0-5.232-.052-6.143-.057-.963-.286-1.416-1.223-1.619a5.828,5.828,0,0,0-.968-.083c-.115,0-.224-.057-.224-.172,0-.167.141-.224.453-.224,1.281,0,3.066.083,3.212.083s2.213-.083,3.066-.083c.312,0,.458.057.458.224,0,.115-.115.172-.229.172a7.394,7.394,0,0,0-.937.083c-.823.146-1.052.625-1.109,1.619-.057.911-.057,1.708-.057,6.143Z" transform="translate(87.135 21.546)" fill="#111"/>
    <path id="Контур_98" data-name="Контур 98" d="M33.482,18.686c0,2.728,0,4.972.141,6.164.089.828.255,1.453,1.109,1.567a12.245,12.245,0,0,0,1.281.109c.167,0,.224.089.224.172,0,.141-.141.229-.453.229-1.562,0-3.353-.089-3.493-.089s-1.937.089-2.785.089c-.312,0-.453-.057-.453-.229,0-.083.052-.172.224-.172a4.358,4.358,0,0,0,.854-.109c.567-.115.708-.739.823-1.567.141-1.192.141-3.436.141-6.164V6.665l-4.2.057c-1.765.031-2.447.229-2.9.911a4.989,4.989,0,0,0-.484.88c-.083.229-.172.286-.286.286-.083,0-.141-.089-.141-.26,0-.281.567-2.728.625-2.952.057-.172.172-.541.286-.541a5.115,5.115,0,0,0,1.249.338c.823.089,1.905.146,2.244.146H38.141a11.027,11.027,0,0,0,2.02-.146c.427-.052.682-.141.791-.141.146,0,.146.172.146.344,0,.854-.089,2.811-.089,3.124,0,.255-.083.37-.2.37-.141,0-.2-.083-.224-.484l-.031-.312c-.083-.849-.765-1.5-3.493-1.562l-3.582-.057Z" transform="translate(97.078 21.222)" fill="#111"/>
  </g>
</svg>
