<svg xmlns="http://www.w3.org/2000/svg" width="498.062" height="63.708" viewBox="0 0 498.062 63.708">
  <g id="Сгруппировать_1" data-name="Сгруппировать 1" transform="translate(-3027.001 147)">
    <path id="Контур_2" data-name="Контур 2" d="M210.622,1.307,190.159,61.735H148.288l13.379-39.883h-.787L131.129,61.735H83.435L82.017,21.852H81.23L67.693,61.735H25.664L46.129,1.307h65.8l2.361,34.962h1.1L140.1,1.307Z" transform="translate(3033.545 -146.667)" fill="#fff"/>
    <path id="Контур_3" data-name="Контур 3" d="M283.038,61.735H240.379L215.036,31.694h-.787L204.018,61.735H162.146L182.61,1.307h42.343l25.658,29.955h.629L261.472,1.307H303.5Z" transform="translate(3068.354 -146.667)" fill="#fff"/>
    <path id="Контур_4" data-name="Контур 4" d="M317.905,30.646c-2.992,6.216,3.621,11.309,14.009,11.309,8.029,0,12.751-1.814,17.158-6.043h44.548c-7.87,16.747-28.176,27.8-69.261,27.8-32.427,0-60.6-12.6-53.362-33.495C277.293,12,300.9,0,337.9,0c34.787,0,61.7,11.137,57.611,27.8h-43.76c-.473-3.886-5.668-6.13-13.852-6.043-10.547,0-17.316,3.281-19.992,8.891" transform="translate(3095.823 -147)" fill="#fff"/>
    <path id="Контур_5" data-name="Контур 5" d="M11.453,56.976q-13.967-.107-10.9-8.829L12.914,13.263q3.1-8.7,17.17-8.805L28.3,9.417q-3.953.064-4.952,2.864L10.277,49.153Q9.315,51.931,13.234,52Z" transform="translate(3027 -145.863)" fill="#fff"/>
    <path id="Контур_6" data-name="Контур 6" d="M374.652,53.155q3.989-.064,4.951-2.844L392.679,13.44q1-2.8-2.957-2.864L391.5,5.617q14,.107,10.9,8.805L390.043,49.308q-3.065,8.72-17.172,8.828Z" transform="translate(3122.097 -145.567)" fill="#fff"/>
  </g>
</svg>
