<svg id="Сгруппировать_235" data-name="Сгруппировать 235" xmlns="http://www.w3.org/2000/svg" width="324.024" height="41.447" viewBox="0 0 324.024 41.447">
  <path id="Контур_46" data-name="Контур 46" d="M142.478,1.128,129.165,40.44h-27.24l8.705-25.946h-.512L90.763,40.44H59.734l-.922-25.946H58.3L49.494,40.44H22.151L35.464,1.128H78.269l1.536,22.745h.717L96.6,1.128Z" transform="translate(-1.196 -0.061)" fill="#fff"/>
  <path id="Контур_47" data-name="Контур 47" d="M218.6,40.441H190.843L174.355,20.9h-.512l-6.656,19.544h-27.24L153.26,1.128h27.547L197.5,20.616h.41l6.657-19.488h27.341Z" transform="translate(-7.556 -0.061)" fill="#fff"/>
  <path id="Контур_48" data-name="Контур 48" d="M264.17,19.937c-1.946,4.044,2.356,7.357,9.114,7.357,5.223,0,8.3-1.18,11.162-3.931h28.982c-5.121,10.9-18.331,18.084-45.059,18.084-21.1,0-39.426-8.2-34.715-21.791C237.749,7.807,253.109,0,277.175,0c22.631,0,40.144,7.245,37.48,18.085H286.187c-.307-2.529-3.687-3.988-9.012-3.932-6.861,0-11.265,2.134-13.006,5.784" transform="translate(-12.576 0)" fill="#fff"/>
  <path id="Контур_49" data-name="Контур 49" d="M7.451,38.015q-9.086-.07-7.092-5.744L8.4,9.577q2.016-5.66,11.171-5.729L18.413,7.074q-2.573.041-3.222,1.864L6.685,32.925Q6.06,34.733,8.61,34.775Z" transform="translate(0 -0.208)" fill="#fff"/>
  <path id="Контур_50" data-name="Контур 50" d="M322.981,35.775q2.6-.043,3.221-1.85l8.506-23.987q.649-1.822-1.923-1.864l1.158-3.226q9.11.07,7.092,5.728l-8.042,22.695Q331,38.945,321.822,39.015Z" transform="translate(-17.377 -0.262)" fill="#fff"/>
</svg>
