<svg width="61" height="25" viewBox="0 0 61 25" fill="none" xmlns="http://www.w3.org/2000/svg">
<path d="M2.02905 0.510184V4.85218L6.73505 0.510184H9.04905L4.98005 3.99418L9.17905 10.0002H7.15105L3.82305 5.07318L2.02905 6.64618V10.0002H0.352051V0.510184H2.02905Z" fill="#111111"/>
<path d="M15.3953 0.263184C16.054 0.263184 16.6736 0.393183 17.2543 0.653183C17.8436 0.904516 18.355 1.25552 18.7883 1.70618C19.2303 2.15685 19.577 2.68552 19.8283 3.29218C20.0883 3.89885 20.2183 4.55752 20.2183 5.26818C20.2183 5.91818 20.097 6.53785 19.8543 7.12718C19.6203 7.71652 19.291 8.23652 18.8663 8.68718C18.4416 9.12918 17.9346 9.48018 17.3453 9.74018C16.756 10.0002 16.106 10.1302 15.3953 10.1302C14.676 10.1302 14.0216 10.0002 13.4323 9.74018C12.843 9.48018 12.336 9.12918 11.9113 8.68718C11.4866 8.23652 11.1573 7.71652 10.9233 7.12718C10.698 6.53785 10.5853 5.91818 10.5853 5.26818C10.5853 4.55752 10.711 3.89885 10.9623 3.29218C11.2223 2.68552 11.569 2.15685 12.0023 1.70618C12.4443 1.25552 12.9556 0.904516 13.5363 0.653183C14.117 0.393183 14.7366 0.263184 15.3953 0.263184ZM15.3953 1.84918C14.91 1.84918 14.481 1.94018 14.1083 2.12218C13.7356 2.30418 13.4193 2.55118 13.1593 2.86318C12.908 3.17518 12.713 3.53918 12.5743 3.95518C12.4443 4.37118 12.3793 4.80885 12.3793 5.26818C12.3793 5.69285 12.4486 6.10885 12.5873 6.51618C12.7346 6.91485 12.9383 7.27452 13.1983 7.59518C13.467 7.90718 13.7833 8.15852 14.1473 8.34918C14.52 8.53985 14.936 8.63518 15.3953 8.63518C15.846 8.63518 16.2533 8.53985 16.6173 8.34918C16.99 8.15852 17.3063 7.90718 17.5663 7.59518C17.835 7.27452 18.0386 6.91485 18.1773 6.51618C18.3246 6.10885 18.3983 5.69285 18.3983 5.26818C18.3983 4.80885 18.329 4.37118 18.1903 3.95518C18.0603 3.53918 17.8696 3.17518 17.6183 2.86318C17.367 2.55118 17.0506 2.30418 16.6693 2.12218C16.2966 1.94018 15.872 1.84918 15.3953 1.84918Z" fill="#111111"/>
<path d="M30.4635 0.510184V10.0002H28.7085V5.39818H24.1715V10.0002H22.4165V0.510184H24.1715V3.99418H28.7085V0.510184H30.4635Z" fill="#111111"/>
<path d="M40.1507 10.0002H33.1567V0.510184H40.2417L40.0597 2.10918H34.8987V3.91618H38.9547L38.7857 5.42418H34.8987V8.44018H40.3197L40.1507 10.0002Z" fill="#111111"/>
<path d="M44.2047 0.510184V10.0002H42.4497V0.510184H44.2047Z" fill="#111111"/>
<path d="M8.39905 15.5102V25.0002H6.64405V20.3982H2.10705V25.0002H0.352051V15.5102H2.10705V18.9942H6.64405V15.5102H8.39905Z" fill="#111111"/>
<path d="M16.9553 22.7902H12.7433L12.0933 25.0002H10.3123L13.1983 15.5102H16.4483L19.3603 25.0002H17.6053L16.9553 22.7902ZM13.1593 21.3732H16.5393L15.2263 16.9402H14.4853L13.1593 21.3732Z" fill="#111111"/>
<path d="M21.2866 15.5102H25.8886C26.3826 15.5102 26.855 15.5622 27.3056 15.6662C27.7563 15.7702 28.1506 15.9349 28.4886 16.1602C28.8266 16.3769 29.0953 16.6542 29.2946 16.9922C29.494 17.3215 29.5936 17.7202 29.5936 18.1882C29.5936 18.6822 29.507 19.0895 29.3336 19.4102C29.169 19.7308 28.9436 19.9909 28.6576 20.1902C28.3716 20.3809 28.038 20.5282 27.6566 20.6322C27.284 20.7275 26.894 20.8012 26.4866 20.8532C26.5733 20.9399 26.6946 21.0872 26.8506 21.2952C27.0066 21.5032 27.18 21.7459 27.3706 22.0232C27.57 22.2919 27.7693 22.5822 27.9686 22.8942C28.1766 23.1975 28.3716 23.4879 28.5536 23.7652C28.7443 24.0425 28.909 24.2939 29.0476 24.5192C29.1863 24.7359 29.286 24.8962 29.3466 25.0002H27.2146C26.9373 24.3155 26.6036 23.6655 26.2136 23.0502C25.8323 22.4262 25.3296 21.7849 24.7056 21.1262H23.0156V25.0002H21.2866V15.5102ZM23.0156 17.0182V19.6182H25.6156C25.9103 19.6182 26.2006 19.6052 26.4866 19.5792C26.7726 19.5532 27.0283 19.4968 27.2536 19.4102C27.479 19.3148 27.6566 19.1849 27.7866 19.0202C27.9253 18.8469 27.9946 18.6172 27.9946 18.3312C27.9946 17.8112 27.804 17.4645 27.4226 17.2912C27.05 17.1092 26.4606 17.0182 25.6546 17.0182H23.0156Z" fill="#111111"/>
<path d="M37.6486 22.7902H33.4366L32.7866 25.0002H31.0056L33.8916 15.5102H37.1416L40.0536 25.0002H38.2986L37.6486 22.7902ZM33.8526 21.3732H37.2326L35.9196 16.9402H35.1786L33.8526 21.3732Z" fill="#111111"/>
<path d="M41.98 25.0002V15.5102H45.061C45.8843 15.5102 46.6296 15.6272 47.297 15.8612C47.973 16.0952 48.5493 16.4375 49.026 16.8882C49.5026 17.3389 49.871 17.8935 50.131 18.5522C50.391 19.2022 50.521 19.9475 50.521 20.7882C50.521 21.5162 50.3953 22.1445 50.144 22.6732C49.8926 23.2019 49.5503 23.6395 49.117 23.9862C48.6923 24.3328 48.1896 24.5885 47.609 24.7532C47.037 24.9179 46.4303 25.0002 45.789 25.0002H41.98ZM43.709 23.5182H45.633C46.0836 23.5182 46.504 23.4662 46.894 23.3622C47.284 23.2582 47.6176 23.0935 47.895 22.8682C48.1723 22.6342 48.389 22.3308 48.545 21.9582C48.7096 21.5855 48.792 21.1305 48.792 20.5932C48.792 19.9952 48.6793 19.4752 48.454 19.0332C48.2373 18.5912 47.947 18.2228 47.583 17.9282C47.219 17.6248 46.7986 17.3995 46.322 17.2522C45.8453 17.1049 45.3556 17.0312 44.853 17.0312H43.709V23.5182Z" fill="#111111"/>
<path d="M58.1389 22.7902H53.9269L53.2769 25.0002H51.4959L54.3819 15.5102H57.6319L60.5439 25.0002H58.7889L58.1389 22.7902ZM54.3429 21.3732H57.7229L56.4099 16.9402H55.6689L54.3429 21.3732Z" fill="#111111"/>
</svg>
